HIERARCHY
ROOT Hips
{
    OFFSET   0.000000   0.000000   0.000000
    CHANNELS 6 Xposition Yposition Zposition Zrotation Xrotation Yrotation
    JOINT Chest
    {
        OFFSET   0.000000   8.007230   0.000000
        CHANNELS 3 Zrotation Xrotation Yrotation
        JOINT Chest2
        {
            OFFSET   0.000000  22.077100   0.000000
            CHANNELS 3 Zrotation Xrotation Yrotation
            JOINT Neck
            {
                OFFSET   0.000000  23.254700   0.000000
                CHANNELS 3 Zrotation Xrotation Yrotation
                JOINT Head
                {
                    OFFSET   0.000010  14.370000   1.956610
                    CHANNELS 3 Zrotation Xrotation Yrotation
                    End Site
                    {
                        OFFSET   0.000000  19.566000   0.000000
                    }
                }
            }
            JOINT LeftCollar
            {
                OFFSET   3.911900  19.017000  -0.467063
                CHANNELS 3 Zrotation Xrotation Yrotation
                JOINT LeftShoulder
                {
                    OFFSET  10.383700   0.000000   0.000000
                    CHANNELS 3 Zrotation Xrotation Yrotation
                    JOINT LeftElbow
                    {
                        OFFSET  26.662100   0.001671   0.000522
                        CHANNELS 3 Zrotation Xrotation Yrotation
                        JOINT LeftWrist
                        {
                            OFFSET  28.869000   0.000037  -0.000114
                            CHANNELS 3 Zrotation Xrotation Yrotation
                            JOINT LeftFinger0
                            {
                                OFFSET   2.044650  -2.323450   3.252850
                                CHANNELS 3 Zrotation Xrotation Yrotation
                                JOINT LeftFinger01
                                {
                                    OFFSET   3.088140   0.000000   0.000000
                                    CHANNELS 3 Zrotation Xrotation Yrotation
                                    JOINT LeftFinger02
                                    {
                                        OFFSET   2.639460   0.000000   0.000000
                                        CHANNELS 3 Zrotation Xrotation Yrotation
                                        End Site
                                        {
                                            OFFSET   2.582190   0.000000   0.000000
                                        }
                                    }
                                }
                            }
                            JOINT LeftFinger1
                            {
                                OFFSET   8.364480   0.000000   3.252850
                                CHANNELS 3 Zrotation Xrotation Yrotation
                                JOINT LeftFinger11
                                {
                                    OFFSET   4.646930   0.000000   0.000000
                                    CHANNELS 3 Zrotation Xrotation Yrotation
                                    JOINT LeftFinger12
                                    {
                                        OFFSET   2.323470   0.000000   0.000000
                                        CHANNELS 3 Zrotation Xrotation Yrotation
                                        End Site
                                        {
                                            OFFSET   2.273050   0.000000   0.000000
                                        }
                                    }
                                }
                            }
                            JOINT LeftFinger2
                            {
                                OFFSET   8.364490   0.000016   1.078090
                                CHANNELS 3 Zrotation Xrotation Yrotation
                                JOINT LeftFinger21
                                {
                                    OFFSET   5.111620   0.000000   0.000000
                                    CHANNELS 3 Zrotation Xrotation Yrotation
                                    JOINT LeftFinger22
                                    {
                                        OFFSET   2.788150   0.000013   0.000000
                                        CHANNELS 3 Zrotation Xrotation Yrotation
                                        End Site
                                        {
                                            OFFSET   2.727660   0.000000   0.000000
                                        }
                                    }
                                }
                            }
                            JOINT LeftFinger3
                            {
                                OFFSET   7.899780   0.000016  -1.078090
                                CHANNELS 3 Zrotation Xrotation Yrotation
                                JOINT LeftFinger31
                                {
                                    OFFSET   4.646930   0.000000   0.000000
                                    CHANNELS 3 Zrotation Xrotation Yrotation
                                    JOINT LeftFinger32
                                    {
                                        OFFSET   2.323470   0.000000   0.000000
                                        CHANNELS 3 Zrotation Xrotation Yrotation
                                        End Site
                                        {
                                            OFFSET   2.273050   0.000000   0.000000
                                        }
                                    }
                                }
                            }
                            JOINT LeftFinger4
                            {
                                OFFSET   7.435080   0.000000  -3.252850
                                CHANNELS 3 Zrotation Xrotation Yrotation
                                JOINT LeftFinger41
                                {
                                    OFFSET   3.717550   0.000000   0.000000
                                    CHANNELS 3 Zrotation Xrotation Yrotation
                                    JOINT LeftFinger42
                                    {
                                        OFFSET   1.858760   0.000000   0.000000
                                        CHANNELS 3 Zrotation Xrotation Yrotation
                                        End Site
                                        {
                                            OFFSET   1.818440   0.000000   0.000000
                                        }
                                    }
                                }
                            }
                        }
                    }
                }
            }
            JOINT RightCollar
            {
                OFFSET  -3.911900  19.017000  -0.467064
                CHANNELS 3 Zrotation Xrotation Yrotation
                JOINT RightShoulder
                {
                    OFFSET -10.383700   0.000000   0.000000
                    CHANNELS 3 Zrotation Xrotation Yrotation
                    JOINT RightElbow
                    {
                        OFFSET -26.662100   0.001633   0.000260
                        CHANNELS 3 Zrotation Xrotation Yrotation
                        JOINT RightWrist
                        {
                            OFFSET -28.869000  -0.000045  -0.000080
                            CHANNELS 3 Zrotation Xrotation Yrotation
                            JOINT RightFinger0
                            {
                                OFFSET  -2.044660  -2.323490   3.252850
                                CHANNELS 3 Zrotation Xrotation Yrotation
                                JOINT RightFinger01
                                {
                                    OFFSET  -3.088140   0.000000   0.000000
                                    CHANNELS 3 Zrotation Xrotation Yrotation
                                    JOINT RightFinger02
                                    {
                                        OFFSET  -2.639450   0.000000   0.000000
                                        CHANNELS 3 Zrotation Xrotation Yrotation
                                        End Site
                                        {
                                            OFFSET  -2.582190   0.000000   0.000000
                                        }
                                    }
                                }
                            }
                            JOINT RightFinger1
                            {
                                OFFSET  -8.364480   0.000000   3.252850
                                CHANNELS 3 Zrotation Xrotation Yrotation
                                JOINT RightFinger11
                                {
                                    OFFSET  -4.646920   0.000000   0.000000
                                    CHANNELS 3 Zrotation Xrotation Yrotation
                                    JOINT RightFinger12
                                    {
                                        OFFSET  -2.323470   0.000000   0.000000
                                        CHANNELS 3 Zrotation Xrotation Yrotation
                                        End Site
                                        {
                                            OFFSET  -2.273050   0.000000   0.000000
                                        }
                                    }
                                }
                            }
                            JOINT RightFinger2
                            {
                                OFFSET  -8.364480   0.000000   1.078090
                                CHANNELS 3 Zrotation Xrotation Yrotation
                                JOINT RightFinger21
                                {
                                    OFFSET  -5.111610   0.000000   0.000000
                                    CHANNELS 3 Zrotation Xrotation Yrotation
                                    JOINT RightFinger22
                                    {
                                        OFFSET  -2.788160   0.000000   0.000000
                                        CHANNELS 3 Zrotation Xrotation Yrotation
                                        End Site
                                        {
                                            OFFSET  -2.727660   0.000000   0.000000
                                        }
                                    }
                                }
                            }
                            JOINT RightFinger3
                            {
                                OFFSET  -7.899780   0.000000  -1.078090
                                CHANNELS 3 Zrotation Xrotation Yrotation
                                JOINT RightFinger31
                                {
                                    OFFSET  -4.646930   0.000000   0.000000
                                    CHANNELS 3 Zrotation Xrotation Yrotation
                                    JOINT RightFinger32
                                    {
                                        OFFSET  -2.323470   0.000000   0.000000
                                        CHANNELS 3 Zrotation Xrotation Yrotation
                                        End Site
                                        {
                                            OFFSET  -2.273050   0.000000   0.000000
                                        }
                                    }
                                }
                            }
                            JOINT RightFinger4
                            {
                                OFFSET  -7.435090   0.000000  -3.252850
                                CHANNELS 3 Zrotation Xrotation Yrotation
                                JOINT RightFinger41
                                {
                                    OFFSET  -3.717550   0.000000   0.000000
                                    CHANNELS 3 Zrotation Xrotation Yrotation
                                    JOINT RightFinger42
                                    {
                                        OFFSET  -1.858760   0.000000   0.000000
                                        CHANNELS 3 Zrotation Xrotation Yrotation
                                        End Site
                                        {
                                            OFFSET  -1.818440   0.000000   0.000000
                                        }
                                    }
                                }
                            }
                        }
                    }
                }
            }
        }
    }
    JOINT LeftHip
    {
        OFFSET   9.782990   0.000000   0.000000
        CHANNELS 3 Zrotation Xrotation Yrotation
        JOINT LeftKnee
        {
            OFFSET  -0.000063 -41.789100   0.001657
            CHANNELS 3 Zrotation Xrotation Yrotation
            JOINT LeftAnkle
            {
                OFFSET   0.000078 -41.133200  -0.000113
                CHANNELS 3 Zrotation Xrotation Yrotation
                JOINT LeftToe
                {
                    OFFSET   0.000000  -6.358970  14.674500
                    CHANNELS 3 Zrotation Xrotation Yrotation
                    End Site
                    {
                        OFFSET   0.000000   0.000000   3.913200
                    }
                }
            }
        }
    }
    JOINT RightHip
    {
        OFFSET  -9.782990   0.000000   0.000000
        CHANNELS 3 Zrotation Xrotation Yrotation
        JOINT RightKnee
        {
            OFFSET   0.000053 -41.789200   0.000277
            CHANNELS 3 Zrotation Xrotation Yrotation
            JOINT RightAnkle
            {
                OFFSET   0.000030 -41.133200  -0.000150
                CHANNELS 3 Zrotation Xrotation Yrotation
                JOINT RightToe
                {
                    OFFSET   0.000000  -6.358960  14.674500
                    CHANNELS 3 Zrotation Xrotation Yrotation
                    End Site
                    {
                        OFFSET   0.000000   0.000000   3.913200
                    }
                }
            }
        }
    }
}
MOTION
Frames: 6
Frame Time:   0.016667
  3.001370  89.202900   1.094570  10.190600 -17.141400  35.735500  -3.899920  14.353300   9.170000 -10.688700  27.809300  20.310100   2.012910  -7.207660   0.252567   3.456180 -14.560500 -21.747200  -8.524480 -13.369000  -1.714660 -62.479800  27.710500 -15.371300  -0.416461  -5.866920 -12.316700   9.914110  -7.362580   1.423130  35.306000  26.067100 -62.331700 -30.937300   0.000000   0.000000 -10.468700   0.002472   0.000000 -25.002200   3.748840  -7.980690 -20.671100   0.004883   0.007492 -14.469800  -0.003042   0.007470 -26.992100  -1.776270   3.481930 -27.191800   0.001154   0.000937 -18.109700  -0.003526  -0.000063 -25.745200  -1.700000   3.519840 -25.798500   0.000560  -0.000246 -17.181800   0.000656   0.003051 -25.855200  -1.706610   3.516350 -38.862800  -0.007721   0.001070 -25.882600  -0.005990  -0.000186   4.181250  -7.632090  13.789600  36.088400 -18.257900  71.052000 -26.175600 -12.831100  10.138400  13.158200 -38.320300  13.704200 -41.535600  52.697700  80.319000  50.521500   0.002472  -0.002872  27.013300  -0.001436   0.003742   7.275080   3.402240  24.943600   6.567710   0.000252   0.000000   4.597430   0.002023   0.003457  84.886900  -0.004275   0.001755  84.886900  -0.007817   0.004278  63.665200   0.005017   0.005740  88.996300  -4.999560  -0.085775  90.832900   0.001715  -0.001812  68.124600   0.006154   0.004871  88.984700  -9.999640  -0.176300 110.000000  -0.009424   0.000439  80.000000   0.009297   0.001454  -2.088500  16.482100   2.970710   5.148660   5.748030 -12.205500  -9.057090  -2.225750 -14.692400   0.000000   0.000000   0.000000   3.243100  21.162100  -6.898720  -0.436396   9.086960 -24.327500   0.601120  -9.430480 -11.536300  -0.000000   0.000000   0.000000
  3.087540  89.177600   1.155260  10.269800 -16.997000  36.108600  -3.960720  14.360900   9.156710 -10.816600  27.808600  20.310100   1.944720  -7.328240   0.249013   3.351140 -14.805200 -21.796200  -8.476460 -13.471200  -1.682640 -62.414500  27.891400 -15.123000  -0.506620  -6.117720 -12.373400   9.713230  -7.456330   1.425320  35.351500  26.352600 -62.619200 -31.006100   0.000000   0.000000 -10.503100   0.002415   0.000000 -24.998200   3.748900  -7.981580 -20.667900   0.005082   0.007566 -14.467600  -0.003016   0.007792 -26.989800  -1.779730   3.491400 -27.156300   0.001085   0.000989 -18.086100  -0.003542  -0.000094 -25.733800  -1.702050   3.529890 -25.786400   0.000555  -0.000210 -17.173800   0.000595   0.003022 -25.806100  -1.706180   3.529160 -38.788300  -0.007721   0.001071 -25.833000  -0.005994  -0.000231   4.054200  -7.536390  13.651300  35.058900 -17.965500  70.851700 -25.908100 -13.518500   9.745590  13.101300 -38.192100  13.666900 -40.998400  52.229300  79.544200  50.565100   0.002247  -0.002657  27.027200  -0.001496   0.003672   7.310950   3.409310  24.832300   6.594490   0.000253   0.000072   4.616160   0.002718   0.003694  84.743100  -0.003941   0.001891  84.743100  -0.007523   0.003942  63.557300   0.005318   0.006052  88.996300  -4.999450  -0.086109  90.618000   0.001625  -0.002106  67.963400   0.006249   0.004728  88.984700  -9.999880  -0.176304 110.000000  -0.009381   0.000453  80.000000   0.009462   0.001722  -2.078250  16.532800   2.867160   5.086560   5.575200 -12.286600  -9.243130  -2.115910 -14.894700  -0.000000   0.000000   0.000000   3.212430  21.093600  -6.922040  -0.411393   9.278150 -24.310400   0.583832  -9.449870 -11.876200   0.000000   0.000000  -0.000000
  3.163390  89.158400   1.217890  10.316200 -16.857900  36.373600  -4.029610  14.362000   9.153250 -10.955800  27.804100  20.310000   1.920200  -7.376720   0.248026   3.304490 -14.907000 -21.888700  -8.434460 -13.558100  -1.678580 -62.292800  28.130900 -14.898400  -0.592499  -6.330640 -12.395600   9.546540  -7.469720   1.425630  35.413100  26.607800 -62.890700 -31.032500   0.000000   0.000000 -10.516300   0.002354  -0.000000 -24.985400   3.749270  -7.987840 -20.656700   0.005279   0.007638 -14.459800  -0.002980   0.008117 -26.977500  -1.780230   3.492750 -27.091900   0.001014   0.001046 -18.043200  -0.003562  -0.000128 -25.706500  -1.702340   3.531330 -25.758800   0.000550  -0.000157 -17.155400   0.000530   0.002987 -25.719600  -1.703320   3.530980 -38.657900  -0.007720   0.001072 -25.746200  -0.005997  -0.000274   3.823680  -7.430320  13.395100  34.411100 -17.765100  70.803500 -25.585100 -14.105500   9.173470  13.045500 -38.145500  13.633100 -40.469300  51.730800  78.792700  50.571300   0.002035  -0.002434  27.029200  -0.001514   0.003591   7.342000   3.414150  24.802300   6.621270   0.000254   0.000154   4.634900   0.003422   0.003941  84.697200  -0.003634   0.001982  84.697200  -0.007217   0.003640  63.522900   0.005633   0.006353  88.996300  -4.999340  -0.086463  90.519200   0.001531  -0.002418  67.889400   0.006353   0.004587  88.984700 -10.000100  -0.176309 110.000000  -0.009334   0.000470  80.000000   0.009617   0.001996  -2.076860  16.570800   2.761430   5.023390   5.415120 -12.295300  -9.413590  -1.985030 -15.071500  -0.000000   0.000000   0.000000   3.148790  21.010100  -6.963640  -0.388958   9.460290 -24.287000   0.576241  -9.452720 -12.080800  -0.000000   0.000000   0.000000
  3.220950  89.152200   1.287090  10.329500 -16.720200  36.553800  -4.095620  14.339500   9.170040 -11.089000  27.746400  20.352300   1.935620  -7.375620   0.249396   3.332240 -14.905300 -22.048100  -8.463610 -13.607800  -1.748430 -62.144100  28.242800 -14.718700  -0.669742  -6.393670 -12.333200   9.452090  -7.159790   1.388700  35.438900  26.690400 -63.013000 -30.991500   0.000000   0.000000 -10.495800   0.002292  -0.000000 -24.958500   3.768590  -8.038070 -20.637100   0.005476   0.007707 -14.446000  -0.002938   0.008437 -26.948800  -1.752860   3.442610 -27.022800   0.000945   0.001103 -17.997100  -0.003582  -0.000166 -25.665600  -1.675480   3.480890 -25.717300   0.000533  -0.000080 -17.127700   0.000466   0.002946 -25.636200  -1.673250   3.481470 -38.531600  -0.007718   0.001074 -25.662000  -0.005997  -0.000310   3.549160  -7.333050  13.103500  34.813700 -17.571800  71.194700 -25.402900 -14.041200   8.903700  12.997300 -38.192600  13.610700 -40.815300  51.713300  78.786100  50.350400   0.001837  -0.002130  26.870000  -0.001495   0.003499   7.239210   3.402510  24.985200   6.537740   0.000259   0.000245   4.576420   0.004128   0.004195  84.655900  -0.003349   0.002037  84.655900  -0.006914   0.003362  63.492000   0.005954   0.006639  88.996200  -4.999230  -0.086824  90.447700   0.001443  -0.002747  67.835800   0.006479   0.004446  88.984700 -10.000400  -0.176308 110.000000  -0.009290   0.000480  80.000000   0.009759   0.002276  -2.077000  16.591500   2.684460   4.961550   5.251580 -12.275200  -9.553300  -1.826790 -15.217900  -0.000000   0.000000   0.000000   3.071840  20.902400  -7.053060  -0.366314   9.632180 -24.293200   0.568496  -9.426800 -12.115800  -0.000000   0.000000   0.000000
  3.266920  89.151100   1.357660  10.304800 -16.604100  36.638600  -4.155720  14.301000   9.200600 -11.212300  27.654300  20.426100   1.970320  -7.367880   0.252650   3.389790 -14.887200 -22.246900  -8.523210 -13.624800  -1.883430 -61.980700  28.287000 -14.595800  -0.729680  -6.405060 -12.225500   9.391570  -6.650750   1.337040  35.457000  26.676400 -63.068900 -30.925900   0.000000   0.000000 -10.463000   0.002228   0.000000 -24.913400   3.816230  -8.153440 -20.607000   0.005675   0.007774 -14.424900  -0.002886   0.008763 -26.918000  -1.689330   3.323210 -26.960400   0.000878   0.001159 -17.955600  -0.003605  -0.000205 -25.625500  -1.613850   3.360480 -25.673800   0.000515   0.000000 -17.098700   0.000395   0.002906 -25.562500  -1.610150   3.362310 -38.416000  -0.007716   0.001075 -25.585000  -0.005997  -0.000348   3.270190  -7.237010  12.797300  35.521200 -17.365000  71.748100 -25.320900 -13.864600   8.790150  12.955000 -38.295500  13.601300 -40.984400  51.701100  78.789100  50.005000   0.001650  -0.001830  26.598800  -0.001443   0.003397   7.128980   3.387320  25.295100   6.454210   0.000267   0.000344   4.517930   0.004838   0.004454  84.644800  -0.003084   0.002054  84.644800  -0.006611   0.003106  63.483700   0.006289   0.006915  88.996200  -4.999120  -0.087199  90.426900   0.001353  -0.003090  67.820200   0.006619   0.004306  88.984700 -10.000600  -0.176307 110.000000  -0.009245   0.000484  80.000000   0.009891   0.002560  -2.075790  16.613600   2.617520   4.907130   5.088530 -12.226900  -9.662560  -1.662140 -15.330300   0.000000   0.000000   0.000000   2.996290  20.790500  -7.170940  -0.355585   9.789200 -24.304300   0.559993  -9.384870 -12.119400  -0.000000   0.000000   0.000000
  3.305190  89.150800   1.424690  10.254200 -16.522300  36.652500  -4.201060  14.265400   9.234730 -11.304600  27.571600  20.499100   2.019060  -7.333240   0.257796   3.469030 -14.816500 -22.461600  -8.613520 -13.596000  -2.047240 -61.843100  28.189200 -14.541000  -0.738638  -6.308730 -12.110600   9.342340  -6.189730   1.319090  35.455400  26.594000 -63.127900 -30.872600   0.000000   0.000036 -10.436200   0.002168  -0.000000 -24.844200   3.897200  -8.351040 -20.560300   0.005883   0.007837 -14.392200  -0.002822   0.009107 -26.894100  -1.590010   3.131380 -26.930000   0.000813   0.001212 -17.935400  -0.003636  -0.000240 -25.599700  -1.518840   3.166500 -25.642200   0.000504   0.000056 -17.077600   0.000311   0.002880 -25.512900  -1.514210   3.168730 -38.334100  -0.007720   0.001077 -25.530500  -0.005994  -0.000397   3.027760  -7.136970  12.520700  36.325600 -17.202900  72.304700 -25.369300 -13.564200   8.767170  12.904200 -38.430400  13.613200 -41.046800  51.653300  78.912700  49.746100   0.001471  -0.001613  26.345400  -0.001358   0.003285   7.187620   3.448510  25.561100   6.521850   0.000283   0.000453   4.565290   0.005557   0.004715  84.789700  -0.002836   0.002025  84.789600  -0.006310   0.002867  63.592300   0.006641   0.007182  88.996200  -4.999000  -0.087596  90.574900   0.001254  -0.003448  67.931200   0.006773   0.004168  88.984700 -10.000900  -0.176314 110.000000  -0.009197   0.000485  80.000000   0.010015   0.002848  -2.065470  16.653000   2.547870   4.862630   4.923130 -12.150000  -9.734210  -1.506740 -15.407400  -0.000000   0.000000  -0.000000   2.947300  20.687500  -7.320070  -0.365052   9.924850 -24.337800   0.555508  -9.344820 -12.013900   0.000000   0.000000   0.000000
